<mxfile host="app.diagrams.net" agent="Mozilla/5.0 (Windows NT 10.0; Win64; x64) AppleWebKit/537.36 (KHTML, like Gecko) Chrome/140.0.0.0 Safari/537.36" version="28.2.5">
  <diagram name="Page-1" id="52a04d89-c75d-2922-d76d-85b35f80e030">
    <mxGraphModel dx="1281" dy="990" grid="1" gridSize="10" guides="1" tooltips="1" connect="1" arrows="1" fold="1" page="1" pageScale="1" pageWidth="1200" pageHeight="800" background="none" math="0" shadow="0">
      <root>
        <mxCell id="0" />
        <mxCell id="1" parent="0" />
        <mxCell id="gf1LbIXTJV9e4SsXSkUJ-65" style="edgeStyle=orthogonalEdgeStyle;rounded=0;orthogonalLoop=1;jettySize=auto;html=1;startArrow=classic;fontSize=16;" parent="1" source="iWIfJNY9qAbWqWh-vAl--5" target="gf1LbIXTJV9e4SsXSkUJ-1" edge="1">
          <mxGeometry relative="1" as="geometry" />
        </mxCell>
        <mxCell id="gf1LbIXTJV9e4SsXSkUJ-82" value="Операции" style="edgeLabel;html=1;align=center;verticalAlign=middle;resizable=0;points=[];fontSize=16;" parent="gf1LbIXTJV9e4SsXSkUJ-65" vertex="1" connectable="0">
          <mxGeometry x="-0.5239" relative="1" as="geometry">
            <mxPoint x="29" as="offset" />
          </mxGeometry>
        </mxCell>
        <mxCell id="gf1LbIXTJV9e4SsXSkUJ-66" style="edgeStyle=orthogonalEdgeStyle;rounded=0;orthogonalLoop=1;jettySize=auto;html=1;exitX=1;exitY=0.25;exitDx=0;exitDy=0;entryX=0.25;entryY=0;entryDx=0;entryDy=0;startArrow=classic;fontSize=16;" parent="1" source="iWIfJNY9qAbWqWh-vAl--5" target="gf1LbIXTJV9e4SsXSkUJ-2" edge="1">
          <mxGeometry relative="1" as="geometry">
            <Array as="points">
              <mxPoint x="218" y="395.94" />
              <mxPoint x="218" y="263.94" />
              <mxPoint x="738" y="263.94" />
            </Array>
          </mxGeometry>
        </mxCell>
        <mxCell id="gf1LbIXTJV9e4SsXSkUJ-80" value="Счета" style="edgeLabel;html=1;align=center;verticalAlign=middle;resizable=0;points=[];fontSize=16;" parent="gf1LbIXTJV9e4SsXSkUJ-66" vertex="1" connectable="0">
          <mxGeometry x="-0.35" y="-4" relative="1" as="geometry">
            <mxPoint x="-34" y="-4" as="offset" />
          </mxGeometry>
        </mxCell>
        <mxCell id="gf1LbIXTJV9e4SsXSkUJ-67" style="edgeStyle=orthogonalEdgeStyle;rounded=0;orthogonalLoop=1;jettySize=auto;html=1;exitX=1;exitY=0.75;exitDx=0;exitDy=0;entryX=0.25;entryY=1;entryDx=0;entryDy=0;startArrow=classic;fontSize=16;" parent="1" source="iWIfJNY9qAbWqWh-vAl--5" target="gf1LbIXTJV9e4SsXSkUJ-33" edge="1">
          <mxGeometry relative="1" as="geometry">
            <Array as="points">
              <mxPoint x="218" y="490.94" />
              <mxPoint x="218" y="633.94" />
              <mxPoint x="738" y="633.94" />
            </Array>
          </mxGeometry>
        </mxCell>
        <mxCell id="gf1LbIXTJV9e4SsXSkUJ-81" value="Категории" style="edgeLabel;html=1;align=center;verticalAlign=middle;resizable=0;points=[];fontSize=16;" parent="gf1LbIXTJV9e4SsXSkUJ-67" vertex="1" connectable="0">
          <mxGeometry x="-0.3942" y="-4" relative="1" as="geometry">
            <mxPoint x="8" y="-4" as="offset" />
          </mxGeometry>
        </mxCell>
        <mxCell id="gf1LbIXTJV9e4SsXSkUJ-70" style="edgeStyle=orthogonalEdgeStyle;rounded=0;orthogonalLoop=1;jettySize=auto;html=1;exitX=0.75;exitY=0;exitDx=0;exitDy=0;entryX=0.25;entryY=0;entryDx=0;entryDy=0;startArrow=classic;fontSize=16;" parent="1" source="iWIfJNY9qAbWqWh-vAl--5" target="gf1LbIXTJV9e4SsXSkUJ-5" edge="1">
          <mxGeometry relative="1" as="geometry">
            <Array as="points">
              <mxPoint x="158" y="199" />
              <mxPoint x="1070" y="199" />
            </Array>
          </mxGeometry>
        </mxCell>
        <mxCell id="gf1LbIXTJV9e4SsXSkUJ-75" value="Доли по операциям" style="edgeLabel;html=1;align=center;verticalAlign=middle;resizable=0;points=[];fontSize=16;" parent="gf1LbIXTJV9e4SsXSkUJ-70" vertex="1" connectable="0">
          <mxGeometry x="-0.7346" y="2" relative="1" as="geometry">
            <mxPoint x="68" as="offset" />
          </mxGeometry>
        </mxCell>
        <mxCell id="gf1LbIXTJV9e4SsXSkUJ-72" style="edgeStyle=orthogonalEdgeStyle;rounded=0;orthogonalLoop=1;jettySize=auto;html=1;entryX=0.5;entryY=0;entryDx=0;entryDy=0;startArrow=classic;fontSize=16;" parent="1" source="iWIfJNY9qAbWqWh-vAl--5" target="gf1LbIXTJV9e4SsXSkUJ-5" edge="1">
          <mxGeometry relative="1" as="geometry">
            <Array as="points">
              <mxPoint x="128" y="169" />
              <mxPoint x="1100" y="169" />
            </Array>
          </mxGeometry>
        </mxCell>
        <mxCell id="gf1LbIXTJV9e4SsXSkUJ-76" value="Подтверждение собственной доли в чужой операции" style="edgeLabel;html=1;align=center;verticalAlign=middle;resizable=0;points=[];fontSize=16;" parent="gf1LbIXTJV9e4SsXSkUJ-72" vertex="1" connectable="0">
          <mxGeometry x="-0.7188" y="2" relative="1" as="geometry">
            <mxPoint x="199" as="offset" />
          </mxGeometry>
        </mxCell>
        <mxCell id="gf1LbIXTJV9e4SsXSkUJ-73" style="edgeStyle=orthogonalEdgeStyle;rounded=0;orthogonalLoop=1;jettySize=auto;html=1;exitX=0.25;exitY=0;exitDx=0;exitDy=0;entryX=0.75;entryY=0;entryDx=0;entryDy=0;startArrow=classic;fontSize=16;" parent="1" source="iWIfJNY9qAbWqWh-vAl--5" target="gf1LbIXTJV9e4SsXSkUJ-5" edge="1">
          <mxGeometry relative="1" as="geometry">
            <Array as="points">
              <mxPoint x="98" y="139" />
              <mxPoint x="1130" y="139" />
            </Array>
          </mxGeometry>
        </mxCell>
        <mxCell id="gf1LbIXTJV9e4SsXSkUJ-77" value="Подтверждение статуса перевода" style="edgeLabel;html=1;align=center;verticalAlign=middle;resizable=0;points=[];fontSize=16;" parent="gf1LbIXTJV9e4SsXSkUJ-73" vertex="1" connectable="0">
          <mxGeometry x="-0.5397" y="3" relative="1" as="geometry">
            <mxPoint x="9" y="3" as="offset" />
          </mxGeometry>
        </mxCell>
        <mxCell id="iWIfJNY9qAbWqWh-vAl--5" value="E1&lt;div&gt;Пользователь&lt;/div&gt;" style="rounded=0;whiteSpace=wrap;html=1;fontSize=16;" parent="1" vertex="1">
          <mxGeometry x="68" y="348.94" width="120" height="190" as="geometry" />
        </mxCell>
        <mxCell id="iWIfJNY9qAbWqWh-vAl--6" value="E2&lt;div&gt;Внешние контакты пользователя&lt;/div&gt;" style="rounded=0;whiteSpace=wrap;html=1;fontSize=16;" parent="1" vertex="1">
          <mxGeometry x="68" y="670" width="120" height="100" as="geometry" />
        </mxCell>
        <mxCell id="gf1LbIXTJV9e4SsXSkUJ-1" value="A1&lt;br&gt;Управлять операциями" style="rounded=1;whiteSpace=wrap;html=1;fontSize=16;" parent="1" vertex="1">
          <mxGeometry x="328" y="413.94" width="120" height="60" as="geometry" />
        </mxCell>
        <mxCell id="gf1LbIXTJV9e4SsXSkUJ-69" style="edgeStyle=orthogonalEdgeStyle;rounded=0;orthogonalLoop=1;jettySize=auto;html=1;entryX=1;entryY=0;entryDx=0;entryDy=0;fontSize=16;" parent="1" source="gf1LbIXTJV9e4SsXSkUJ-2" target="iWIfJNY9qAbWqWh-vAl--5" edge="1">
          <mxGeometry relative="1" as="geometry">
            <Array as="points">
              <mxPoint x="768" y="233.94" />
              <mxPoint x="188" y="233.94" />
            </Array>
          </mxGeometry>
        </mxCell>
        <mxCell id="gf1LbIXTJV9e4SsXSkUJ-78" value="Балансы по счетам" style="edgeLabel;html=1;align=center;verticalAlign=middle;resizable=0;points=[];fontSize=16;" parent="gf1LbIXTJV9e4SsXSkUJ-69" vertex="1" connectable="0">
          <mxGeometry x="0.6387" y="-4" relative="1" as="geometry">
            <mxPoint x="72" as="offset" />
          </mxGeometry>
        </mxCell>
        <mxCell id="gf1LbIXTJV9e4SsXSkUJ-2" value="A2&lt;br&gt;Управлять счетами" style="rounded=1;whiteSpace=wrap;html=1;fontSize=16;" parent="1" vertex="1">
          <mxGeometry x="708" y="283.94" width="120" height="60" as="geometry" />
        </mxCell>
        <mxCell id="AvBX1O-fgBV3k__ojIKi-1" style="edgeStyle=orthogonalEdgeStyle;rounded=0;orthogonalLoop=1;jettySize=auto;html=1;entryX=1;entryY=0.75;entryDx=0;entryDy=0;fontSize=16;" parent="1" source="gf1LbIXTJV9e4SsXSkUJ-5" target="iWIfJNY9qAbWqWh-vAl--6" edge="1">
          <mxGeometry relative="1" as="geometry">
            <Array as="points">
              <mxPoint x="1130" y="745" />
            </Array>
          </mxGeometry>
        </mxCell>
        <mxCell id="AvBX1O-fgBV3k__ojIKi-2" value="Уведомление" style="edgeLabel;html=1;align=center;verticalAlign=middle;resizable=0;points=[];fontSize=16;" parent="AvBX1O-fgBV3k__ojIKi-1" vertex="1" connectable="0">
          <mxGeometry x="-0.9567" y="-2" relative="1" as="geometry">
            <mxPoint x="22" y="11" as="offset" />
          </mxGeometry>
        </mxCell>
        <mxCell id="gf1LbIXTJV9e4SsXSkUJ-5" value="A4&lt;br&gt;Управлять долями" style="rounded=1;whiteSpace=wrap;html=1;fontSize=16;" parent="1" vertex="1">
          <mxGeometry x="1040" y="413.94" width="120" height="60" as="geometry" />
        </mxCell>
        <mxCell id="gf1LbIXTJV9e4SsXSkUJ-49" style="edgeStyle=orthogonalEdgeStyle;rounded=0;orthogonalLoop=1;jettySize=auto;html=1;exitX=0.25;exitY=1;exitDx=0;exitDy=0;entryX=1;entryY=0.25;entryDx=0;entryDy=0;startArrow=classic;fontSize=16;" parent="1" source="gf1LbIXTJV9e4SsXSkUJ-5" target="iWIfJNY9qAbWqWh-vAl--6" edge="1">
          <mxGeometry relative="1" as="geometry">
            <mxPoint x="1218" y="673.94" as="sourcePoint" />
          </mxGeometry>
        </mxCell>
        <mxCell id="gf1LbIXTJV9e4SsXSkUJ-88" value="Подтверждение&amp;nbsp;&lt;span style=&quot;background-color: light-dark(#ffffff, var(--ge-dark-color, #121212)); color: light-dark(rgb(0, 0, 0), rgb(255, 255, 255));&quot;&gt;статуса перевода&lt;/span&gt;" style="edgeLabel;html=1;align=center;verticalAlign=middle;resizable=0;points=[];fontSize=16;" parent="gf1LbIXTJV9e4SsXSkUJ-49" vertex="1" connectable="0">
          <mxGeometry x="-0.6336" y="-1" relative="1" as="geometry">
            <mxPoint x="-739" y="14" as="offset" />
          </mxGeometry>
        </mxCell>
        <mxCell id="gf1LbIXTJV9e4SsXSkUJ-50" style="edgeStyle=orthogonalEdgeStyle;rounded=0;orthogonalLoop=1;jettySize=auto;html=1;exitX=0.5;exitY=1;exitDx=0;exitDy=0;entryX=1;entryY=0.5;entryDx=0;entryDy=0;startArrow=classic;fontSize=16;" parent="1" source="gf1LbIXTJV9e4SsXSkUJ-5" target="iWIfJNY9qAbWqWh-vAl--6" edge="1">
          <mxGeometry relative="1" as="geometry">
            <mxPoint x="1278" y="673.94" as="sourcePoint" />
          </mxGeometry>
        </mxCell>
        <mxCell id="gf1LbIXTJV9e4SsXSkUJ-90" value="Подтверждение собственной доли в чужой операции" style="edgeLabel;html=1;align=center;verticalAlign=middle;resizable=0;points=[];fontSize=16;" parent="gf1LbIXTJV9e4SsXSkUJ-50" vertex="1" connectable="0">
          <mxGeometry x="0.9322" y="5" relative="1" as="geometry">
            <mxPoint x="173" y="-5" as="offset" />
          </mxGeometry>
        </mxCell>
        <mxCell id="gf1LbIXTJV9e4SsXSkUJ-60" style="edgeStyle=orthogonalEdgeStyle;rounded=0;orthogonalLoop=1;jettySize=auto;html=1;entryX=1;entryY=0.5;entryDx=0;entryDy=0;startArrow=classic;fontSize=16;" parent="1" source="gf1LbIXTJV9e4SsXSkUJ-7" target="gf1LbIXTJV9e4SsXSkUJ-1" edge="1">
          <mxGeometry relative="1" as="geometry" />
        </mxCell>
        <mxCell id="gf1LbIXTJV9e4SsXSkUJ-91" value="Операции" style="edgeLabel;html=1;align=center;verticalAlign=middle;resizable=0;points=[];fontSize=16;" parent="gf1LbIXTJV9e4SsXSkUJ-60" vertex="1" connectable="0">
          <mxGeometry x="0.416" y="-4" relative="1" as="geometry">
            <mxPoint x="21" y="4" as="offset" />
          </mxGeometry>
        </mxCell>
        <mxCell id="AvBX1O-fgBV3k__ojIKi-3" style="edgeStyle=orthogonalEdgeStyle;rounded=0;orthogonalLoop=1;jettySize=auto;html=1;entryX=0.25;entryY=1;entryDx=0;entryDy=0;fontSize=16;" parent="1" source="gf1LbIXTJV9e4SsXSkUJ-7" target="gf1LbIXTJV9e4SsXSkUJ-2" edge="1">
          <mxGeometry relative="1" as="geometry">
            <Array as="points">
              <mxPoint x="653" y="383.94" />
              <mxPoint x="738" y="383.94" />
            </Array>
          </mxGeometry>
        </mxCell>
        <mxCell id="AvBX1O-fgBV3k__ojIKi-4" value="Операции" style="edgeLabel;html=1;align=center;verticalAlign=middle;resizable=0;points=[];fontSize=16;" parent="AvBX1O-fgBV3k__ojIKi-3" vertex="1" connectable="0">
          <mxGeometry x="-0.0998" y="-1" relative="1" as="geometry">
            <mxPoint x="5" y="-1" as="offset" />
          </mxGeometry>
        </mxCell>
        <mxCell id="AvBX1O-fgBV3k__ojIKi-5" style="edgeStyle=orthogonalEdgeStyle;rounded=0;orthogonalLoop=1;jettySize=auto;html=1;entryX=0.25;entryY=0;entryDx=0;entryDy=0;fontSize=16;" parent="1" source="gf1LbIXTJV9e4SsXSkUJ-7" target="gf1LbIXTJV9e4SsXSkUJ-33" edge="1">
          <mxGeometry relative="1" as="geometry">
            <Array as="points">
              <mxPoint x="653" y="503.94" />
              <mxPoint x="738" y="503.94" />
            </Array>
          </mxGeometry>
        </mxCell>
        <mxCell id="AvBX1O-fgBV3k__ojIKi-6" value="Операции" style="edgeLabel;html=1;align=center;verticalAlign=middle;resizable=0;points=[];fontSize=16;" parent="AvBX1O-fgBV3k__ojIKi-5" vertex="1" connectable="0">
          <mxGeometry x="-0.1794" y="-2" relative="1" as="geometry">
            <mxPoint x="9" y="-2" as="offset" />
          </mxGeometry>
        </mxCell>
        <mxCell id="gf1LbIXTJV9e4SsXSkUJ-7" value="D1 Операции" style="shape=mxgraph.dfd.dataStoreID;whiteSpace=wrap;html=1;boundedLbl=1;backgroundOutline=1;size=15;dashed=0;align=left;spacingLeft=3;points=[[0,0],[0.5,0],[1,0],[0,0.5],[1,0.5],[0,1],[0.5,1],[1,1]];fontSize=16;" parent="1" vertex="1">
          <mxGeometry x="608" y="413.94" width="112" height="60" as="geometry" />
        </mxCell>
        <mxCell id="gf1LbIXTJV9e4SsXSkUJ-9" value="D2&amp;nbsp; Счета&lt;div&gt;&amp;nbsp; &amp;nbsp; &amp;nbsp; &amp;nbsp;и&lt;br&gt;&amp;nbsp; &amp;nbsp; &amp;nbsp; &amp;nbsp;балансы&lt;/div&gt;" style="shape=mxgraph.dfd.dataStoreID;whiteSpace=wrap;html=1;boundedLbl=1;backgroundOutline=1;size=15;dashed=0;align=left;spacingLeft=3;points=[[0,0],[0.5,0],[1,0],[0,0.5],[1,0.5],[0,1],[0.5,1],[1,1]];fontSize=16;" parent="1" vertex="1">
          <mxGeometry x="330" y="273.94" width="121" height="60" as="geometry" />
        </mxCell>
        <mxCell id="AvBX1O-fgBV3k__ojIKi-17" style="edgeStyle=orthogonalEdgeStyle;rounded=0;orthogonalLoop=1;jettySize=auto;html=1;fontSize=16;" parent="1" source="gf1LbIXTJV9e4SsXSkUJ-10" edge="1">
          <mxGeometry relative="1" as="geometry">
            <mxPoint x="373" y="410" as="targetPoint" />
            <Array as="points">
              <mxPoint x="373" y="354" />
            </Array>
          </mxGeometry>
        </mxCell>
        <mxCell id="AvBX1O-fgBV3k__ojIKi-18" value="Состояние проводок по счетам" style="edgeLabel;html=1;align=center;verticalAlign=middle;resizable=0;points=[];fontSize=16;" parent="AvBX1O-fgBV3k__ojIKi-17" vertex="1" connectable="0">
          <mxGeometry x="0.504" y="-2" relative="1" as="geometry">
            <mxPoint x="-31" y="12" as="offset" />
          </mxGeometry>
        </mxCell>
        <mxCell id="gf1LbIXTJV9e4SsXSkUJ-10" value="D3&amp;nbsp; Проводки&lt;div&gt;&amp;nbsp; &amp;nbsp; &amp;nbsp; &amp;nbsp;по счетам&lt;/div&gt;" style="shape=mxgraph.dfd.dataStoreID;whiteSpace=wrap;html=1;boundedLbl=1;backgroundOutline=1;size=15;dashed=0;align=left;spacingLeft=3;points=[[0,0],[0.5,0],[1,0],[0,0.5],[1,0.5],[0,1],[0.5,1],[1,1]];fontSize=16;" parent="1" vertex="1">
          <mxGeometry x="460" y="323.94" width="120" height="60" as="geometry" />
        </mxCell>
        <mxCell id="AvBX1O-fgBV3k__ojIKi-7" style="edgeStyle=orthogonalEdgeStyle;rounded=0;orthogonalLoop=1;jettySize=auto;html=1;entryX=0.75;entryY=1;entryDx=0;entryDy=0;fontSize=16;" parent="1" source="gf1LbIXTJV9e4SsXSkUJ-13" target="gf1LbIXTJV9e4SsXSkUJ-2" edge="1">
          <mxGeometry relative="1" as="geometry">
            <Array as="points">
              <mxPoint x="798" y="433.94" />
            </Array>
          </mxGeometry>
        </mxCell>
        <mxCell id="AvBX1O-fgBV3k__ojIKi-9" value="Доли по&lt;br&gt;операциям" style="edgeLabel;html=1;align=center;verticalAlign=middle;resizable=0;points=[];fontSize=16;" parent="AvBX1O-fgBV3k__ojIKi-7" vertex="1" connectable="0">
          <mxGeometry x="-0.1945" y="-1" relative="1" as="geometry">
            <mxPoint x="4" y="-21" as="offset" />
          </mxGeometry>
        </mxCell>
        <mxCell id="AvBX1O-fgBV3k__ojIKi-8" style="edgeStyle=orthogonalEdgeStyle;rounded=0;orthogonalLoop=1;jettySize=auto;html=1;entryX=0.75;entryY=0;entryDx=0;entryDy=0;fontSize=16;" parent="1" source="gf1LbIXTJV9e4SsXSkUJ-13" target="gf1LbIXTJV9e4SsXSkUJ-33" edge="1">
          <mxGeometry relative="1" as="geometry">
            <Array as="points">
              <mxPoint x="798" y="453.94" />
            </Array>
          </mxGeometry>
        </mxCell>
        <mxCell id="AvBX1O-fgBV3k__ojIKi-10" value="Доли по&lt;div&gt;операциям&lt;/div&gt;" style="edgeLabel;html=1;align=center;verticalAlign=middle;resizable=0;points=[];fontSize=16;" parent="AvBX1O-fgBV3k__ojIKi-8" vertex="1" connectable="0">
          <mxGeometry x="-0.4233" relative="1" as="geometry">
            <mxPoint x="5" y="30" as="offset" />
          </mxGeometry>
        </mxCell>
        <mxCell id="gf1LbIXTJV9e4SsXSkUJ-13" value="D6&amp;nbsp; &amp;nbsp; Доли" style="shape=mxgraph.dfd.dataStoreID;whiteSpace=wrap;html=1;boundedLbl=1;backgroundOutline=1;size=15;dashed=0;align=left;spacingLeft=3;points=[[0,0],[0.5,0],[1,0],[0,0.5],[1,0.5],[0,1],[0.5,1],[1,1]];fontSize=16;" parent="1" vertex="1">
          <mxGeometry x="810" y="413.94" width="113" height="60" as="geometry" />
        </mxCell>
        <mxCell id="gf1LbIXTJV9e4SsXSkUJ-15" style="edgeStyle=orthogonalEdgeStyle;rounded=0;orthogonalLoop=1;jettySize=auto;html=1;startArrow=classic;entryX=1.009;entryY=0.417;entryDx=0;entryDy=0;entryPerimeter=0;exitX=0;exitY=0.25;exitDx=0;exitDy=0;fontSize=16;" parent="1" source="gf1LbIXTJV9e4SsXSkUJ-2" target="gf1LbIXTJV9e4SsXSkUJ-9" edge="1">
          <mxGeometry relative="1" as="geometry">
            <mxPoint x="443" y="303.94" as="targetPoint" />
            <Array as="points" />
            <mxPoint x="703" y="293.94" as="sourcePoint" />
          </mxGeometry>
        </mxCell>
        <mxCell id="gf1LbIXTJV9e4SsXSkUJ-30" value="Счета" style="edgeLabel;html=1;align=center;verticalAlign=middle;resizable=0;points=[];fontSize=16;" parent="gf1LbIXTJV9e4SsXSkUJ-15" vertex="1" connectable="0">
          <mxGeometry x="-0.0923" y="1" relative="1" as="geometry">
            <mxPoint x="-19" y="-10" as="offset" />
          </mxGeometry>
        </mxCell>
        <mxCell id="gf1LbIXTJV9e4SsXSkUJ-25" style="edgeStyle=orthogonalEdgeStyle;rounded=0;orthogonalLoop=1;jettySize=auto;html=1;entryX=1;entryY=0.5;entryDx=0;entryDy=0;entryPerimeter=0;startArrow=classic;fontSize=16;" parent="1" source="gf1LbIXTJV9e4SsXSkUJ-5" target="gf1LbIXTJV9e4SsXSkUJ-13" edge="1">
          <mxGeometry relative="1" as="geometry" />
        </mxCell>
        <mxCell id="gf1LbIXTJV9e4SsXSkUJ-42" value="Доли по &lt;br&gt;операциям" style="edgeLabel;html=1;align=center;verticalAlign=middle;resizable=0;points=[];fontSize=16;" parent="gf1LbIXTJV9e4SsXSkUJ-25" vertex="1" connectable="0">
          <mxGeometry x="-0.0981" y="2" relative="1" as="geometry">
            <mxPoint x="-5" y="-2" as="offset" />
          </mxGeometry>
        </mxCell>
        <mxCell id="gf1LbIXTJV9e4SsXSkUJ-29" style="edgeStyle=orthogonalEdgeStyle;rounded=0;orthogonalLoop=1;jettySize=auto;html=1;entryX=1;entryY=0;entryDx=0;entryDy=37.5;entryPerimeter=0;startArrow=classic;fontSize=16;" parent="1" source="gf1LbIXTJV9e4SsXSkUJ-2" target="gf1LbIXTJV9e4SsXSkUJ-9" edge="1">
          <mxGeometry relative="1" as="geometry">
            <Array as="points">
              <mxPoint x="623" y="311.94" />
              <mxPoint x="623" y="311.94" />
            </Array>
          </mxGeometry>
        </mxCell>
        <mxCell id="gf1LbIXTJV9e4SsXSkUJ-31" value="Балансы по счетам" style="edgeLabel;html=1;align=center;verticalAlign=middle;resizable=0;points=[];fontSize=16;" parent="gf1LbIXTJV9e4SsXSkUJ-29" vertex="1" connectable="0">
          <mxGeometry x="0.0567" y="1" relative="1" as="geometry">
            <mxPoint x="1" as="offset" />
          </mxGeometry>
        </mxCell>
        <mxCell id="gf1LbIXTJV9e4SsXSkUJ-68" style="edgeStyle=orthogonalEdgeStyle;rounded=0;orthogonalLoop=1;jettySize=auto;html=1;entryX=1;entryY=1;entryDx=0;entryDy=0;fontSize=16;" parent="1" source="gf1LbIXTJV9e4SsXSkUJ-33" target="iWIfJNY9qAbWqWh-vAl--5" edge="1">
          <mxGeometry relative="1" as="geometry">
            <Array as="points">
              <mxPoint x="768" y="663.94" />
              <mxPoint x="188" y="663.94" />
            </Array>
          </mxGeometry>
        </mxCell>
        <mxCell id="gf1LbIXTJV9e4SsXSkUJ-79" value="Отчет по категориям" style="edgeLabel;html=1;align=center;verticalAlign=middle;resizable=0;points=[];fontSize=16;" parent="gf1LbIXTJV9e4SsXSkUJ-68" vertex="1" connectable="0">
          <mxGeometry x="0.5905" y="-4" relative="1" as="geometry">
            <mxPoint x="52" as="offset" />
          </mxGeometry>
        </mxCell>
        <mxCell id="gf1LbIXTJV9e4SsXSkUJ-33" value="A3&lt;br&gt;Управлять категориями" style="rounded=1;whiteSpace=wrap;html=1;fontSize=16;" parent="1" vertex="1">
          <mxGeometry x="708" y="553.94" width="120" height="60" as="geometry" />
        </mxCell>
        <mxCell id="gf1LbIXTJV9e4SsXSkUJ-34" value="D4&amp;nbsp; &amp;nbsp;Категории&lt;div&gt;&amp;nbsp; &amp;nbsp; &amp;nbsp; &amp;nbsp; и суммы&lt;/div&gt;" style="shape=mxgraph.dfd.dataStoreID;whiteSpace=wrap;html=1;boundedLbl=1;backgroundOutline=1;size=15;dashed=0;align=left;spacingLeft=3;points=[[0,0],[0.5,0],[1,0],[0,0.5],[1,0.5],[0,1],[0.5,1],[1,1]];fontSize=16;" parent="1" vertex="1">
          <mxGeometry x="330" y="553.94" width="121" height="60" as="geometry" />
        </mxCell>
        <mxCell id="AvBX1O-fgBV3k__ojIKi-13" style="edgeStyle=orthogonalEdgeStyle;rounded=0;orthogonalLoop=1;jettySize=auto;html=1;entryX=0.374;entryY=0.972;entryDx=0;entryDy=0;fontSize=16;entryPerimeter=0;" parent="1" source="gf1LbIXTJV9e4SsXSkUJ-35" target="gf1LbIXTJV9e4SsXSkUJ-1" edge="1">
          <mxGeometry relative="1" as="geometry">
            <Array as="points">
              <mxPoint x="373" y="534" />
            </Array>
          </mxGeometry>
        </mxCell>
        <mxCell id="AvBX1O-fgBV3k__ojIKi-14" value="Состояние проводок по категориям" style="edgeLabel;html=1;align=center;verticalAlign=middle;resizable=0;points=[];fontSize=14;" parent="AvBX1O-fgBV3k__ojIKi-13" vertex="1" connectable="0">
          <mxGeometry x="0.1708" y="2" relative="1" as="geometry">
            <mxPoint x="-31" y="-16" as="offset" />
          </mxGeometry>
        </mxCell>
        <mxCell id="gf1LbIXTJV9e4SsXSkUJ-35" value="D5&amp;nbsp; &amp;nbsp;Проводки&lt;div&gt;&amp;nbsp; &amp;nbsp; &amp;nbsp; &amp;nbsp; по&lt;/div&gt;&lt;div&gt;&amp;nbsp; &amp;nbsp; &amp;nbsp; &amp;nbsp; категориям&lt;/div&gt;" style="shape=mxgraph.dfd.dataStoreID;whiteSpace=wrap;html=1;boundedLbl=1;backgroundOutline=1;size=15;dashed=0;align=left;spacingLeft=3;points=[[0,0],[0.5,0],[1,0],[0,0.5],[1,0.5],[0,1],[0.5,1],[1,1]];fontSize=16;" parent="1" vertex="1">
          <mxGeometry x="460" y="503.94" width="130" height="60" as="geometry" />
        </mxCell>
        <mxCell id="gf1LbIXTJV9e4SsXSkUJ-36" style="edgeStyle=orthogonalEdgeStyle;rounded=0;orthogonalLoop=1;jettySize=auto;html=1;startArrow=classic;exitX=0;exitY=0.5;exitDx=0;exitDy=0;entryX=1;entryY=0.5;entryDx=0;entryDy=0;entryPerimeter=0;fontSize=16;" parent="1" source="gf1LbIXTJV9e4SsXSkUJ-33" target="gf1LbIXTJV9e4SsXSkUJ-34" edge="1">
          <mxGeometry relative="1" as="geometry">
            <mxPoint x="493" y="583.94" as="targetPoint" />
            <Array as="points" />
            <mxPoint x="703" y="583.94" as="sourcePoint" />
          </mxGeometry>
        </mxCell>
        <mxCell id="gf1LbIXTJV9e4SsXSkUJ-37" value="Категории" style="edgeLabel;html=1;align=center;verticalAlign=middle;resizable=0;points=[];fontSize=16;" parent="gf1LbIXTJV9e4SsXSkUJ-36" vertex="1" connectable="0">
          <mxGeometry x="-0.0923" y="1" relative="1" as="geometry">
            <mxPoint x="-71" y="-5" as="offset" />
          </mxGeometry>
        </mxCell>
        <mxCell id="gf1LbIXTJV9e4SsXSkUJ-40" style="edgeStyle=orthogonalEdgeStyle;rounded=0;orthogonalLoop=1;jettySize=auto;html=1;startArrow=classic;entryX=1;entryY=1;entryDx=0;entryDy=-15;entryPerimeter=0;exitX=0;exitY=0.75;exitDx=0;exitDy=0;fontSize=16;" parent="1" source="gf1LbIXTJV9e4SsXSkUJ-33" target="gf1LbIXTJV9e4SsXSkUJ-34" edge="1">
          <mxGeometry relative="1" as="geometry">
            <Array as="points" />
            <mxPoint x="709" y="603.94" as="sourcePoint" />
            <mxPoint x="493" y="603.94" as="targetPoint" />
          </mxGeometry>
        </mxCell>
        <mxCell id="gf1LbIXTJV9e4SsXSkUJ-41" value="Суммы по категориям" style="edgeLabel;html=1;align=center;verticalAlign=middle;resizable=0;points=[];fontSize=16;" parent="gf1LbIXTJV9e4SsXSkUJ-40" vertex="1" connectable="0">
          <mxGeometry x="0.0567" y="1" relative="1" as="geometry">
            <mxPoint x="38" as="offset" />
          </mxGeometry>
        </mxCell>
        <mxCell id="AvBX1O-fgBV3k__ojIKi-21" style="edgeStyle=orthogonalEdgeStyle;rounded=0;orthogonalLoop=1;jettySize=auto;html=1;exitX=0;exitY=0.25;exitDx=0;exitDy=0;entryX=1;entryY=0.5;entryDx=0;entryDy=0;entryPerimeter=0;fontSize=16;" parent="1" source="gf1LbIXTJV9e4SsXSkUJ-33" target="gf1LbIXTJV9e4SsXSkUJ-35" edge="1">
          <mxGeometry relative="1" as="geometry">
            <Array as="points">
              <mxPoint x="708" y="556" />
              <mxPoint x="603" y="556" />
              <mxPoint x="603" y="534" />
            </Array>
          </mxGeometry>
        </mxCell>
        <mxCell id="AvBX1O-fgBV3k__ojIKi-22" value="&lt;font style=&quot;font-size: 14px;&quot;&gt;Проводки по&lt;/font&gt;&lt;div&gt;&lt;font style=&quot;font-size: 14px;&quot;&gt;категориям&lt;/font&gt;&lt;/div&gt;" style="edgeLabel;html=1;align=center;verticalAlign=middle;resizable=0;points=[];fontSize=16;" parent="AvBX1O-fgBV3k__ojIKi-21" vertex="1" connectable="0">
          <mxGeometry x="-0.1339" y="-3" relative="1" as="geometry">
            <mxPoint x="-5" y="1" as="offset" />
          </mxGeometry>
        </mxCell>
        <mxCell id="AvBX1O-fgBV3k__ojIKi-23" style="edgeStyle=orthogonalEdgeStyle;rounded=0;orthogonalLoop=1;jettySize=auto;html=1;exitX=0;exitY=0.75;exitDx=0;exitDy=0;entryX=1;entryY=0.5;entryDx=0;entryDy=0;entryPerimeter=0;fontSize=16;" parent="1" source="gf1LbIXTJV9e4SsXSkUJ-2" target="gf1LbIXTJV9e4SsXSkUJ-10" edge="1">
          <mxGeometry relative="1" as="geometry">
            <Array as="points">
              <mxPoint x="600" y="329" />
              <mxPoint x="600" y="354" />
            </Array>
          </mxGeometry>
        </mxCell>
        <mxCell id="AvBX1O-fgBV3k__ojIKi-24" value="Проводки&lt;div&gt;по счетам&lt;/div&gt;" style="edgeLabel;html=1;align=center;verticalAlign=middle;resizable=0;points=[];fontSize=16;" parent="AvBX1O-fgBV3k__ojIKi-23" vertex="1" connectable="0">
          <mxGeometry x="0.6459" y="-2" relative="1" as="geometry">
            <mxPoint x="55" y="-9" as="offset" />
          </mxGeometry>
        </mxCell>
        <mxCell id="AvBX1O-fgBV3k__ojIKi-28" value="&lt;font&gt;A0&lt;/font&gt;" style="text;html=1;align=center;verticalAlign=middle;resizable=0;points=[];autosize=1;strokeColor=none;fillColor=none;fontSize=60;" parent="1" vertex="1">
          <mxGeometry x="530" y="30" width="100" height="90" as="geometry" />
        </mxCell>
      </root>
    </mxGraphModel>
  </diagram>
</mxfile>
